<svg width="240" height="240" viewBox="0 0 240 240" fill="none" xmlns="http://www.w3.org/2000/svg">
<path d="M118.387 157.819H152.719V232.5H118.387V157.819Z" fill="#C87D5E"/>
<path d="M152.719 176.681C149.644 171.694 145.575 167.437 140.437 164.662C137.25 162.937 133.725 161.944 130.144 161.587H124.162C122.212 161.775 120.262 162.15 118.387 162.712V200.456C120.056 197.906 122.831 196.069 125.831 195.356C131.062 194.138 136.612 196.144 140.85 199.425C145.087 202.706 148.256 207.169 151.35 211.538L152.737 213.488V176.681H152.719Z" fill="#874D36"/>
<path d="M54.2625 54.3188C76.5 54.3188 94.5937 69.3563 94.5937 87.8625V177.113H13.9125V87.8625C13.9125 69.3563 32.0062 54.3188 54.2625 54.3188Z" fill="white"/>
<path d="M103.069 176.606H35.8687C31.875 176.606 28.5 173.663 27.9562 169.706L18.5062 101.025C18.4004 100.252 18.4616 99.4645 18.6855 98.7167C18.9094 97.9689 19.2909 97.2777 19.8043 96.6896C20.3177 96.1016 20.9511 95.6304 21.6619 95.3077C22.3727 94.985 23.1444 94.8183 23.925 94.8188H103.069V176.606Z" fill="#60D3DB" fill-opacity="0.1"/>
<path d="M182.906 47.0438H54.2625C54.2625 47.0438 98.4749 52.4625 98.4749 89.7563L98.6999 184.406H223.425C228.431 184.406 232.481 180.356 232.481 175.35V96.6375C232.5 69.2438 210.3 47.0438 182.906 47.0438Z" fill="#60D3DB"/>
<path d="M156.506 63.7687L141.244 64.2937L119.025 98.3812V70.725C119.025 55.95 104.025 47.025 104.025 47.025H162.45L162.75 47.325C168.881 53.1562 164.963 63.4687 156.506 63.7687Z" fill="#60D3DB" fill-opacity="0.2"/>
<path d="M139.144 118.538C147.573 118.538 154.406 110.848 154.406 101.363C154.406 91.877 147.573 84.1875 139.144 84.1875C130.714 84.1875 123.881 91.877 123.881 101.363C123.881 110.848 130.714 118.538 139.144 118.538Z" fill="#60D3DB" fill-opacity="0.2"/>
<path d="M125.419 18.9562L125.475 96.8812C125.475 99.5062 127.594 101.625 130.219 101.625H139.8C142.425 101.625 144.544 99.5062 144.544 96.8812V7.5H136.856C135.353 7.5 133.864 7.79646 132.475 8.37242C131.086 8.94838 129.824 9.79254 128.762 10.8566C127.7 11.9206 126.858 13.1837 126.284 14.5736C125.71 15.9634 125.416 17.4527 125.419 18.9562Z" fill="#60D3DB"/>
<path d="M129.6 18.9562L129.656 96.8812H144.975V36.5437H171.375C177.469 36.5437 178.181 33.9 178.181 22.3875C178.181 10.875 177.487 7.5 171.394 7.5H141.037C139.534 7.5 138.045 7.79646 136.656 8.37242C135.267 8.94838 134.006 9.79254 132.943 10.8566C131.881 11.9206 131.039 13.1837 130.465 14.5735C129.892 15.9634 129.598 17.4527 129.6 18.9562Z" fill="#60D3DB"/>
<path d="M139.481 20.4C139.35 24.1312 136.913 57.9187 136.481 64.2562C135.956 71.925 131.531 72.7125 131.531 65.7375V20.0625C131.55 12.675 139.762 12.2812 139.481 20.4Z" fill="#60D3DB"/>
<path d="M137.625 79.575L137.756 113.906H129.994C122.4 113.906 116.25 106.219 116.25 96.7312C116.25 87.2437 122.4 79.5562 129.994 79.5562C137.588 79.5562 137.625 79.575 137.625 79.575Z" fill="#82AEC0"/>
<path d="M137.625 113.906C145.215 113.906 151.369 106.217 151.369 96.7312C151.369 87.2458 145.215 79.5562 137.625 79.5562C130.035 79.5562 123.881 87.2458 123.881 96.7312C123.881 106.217 130.035 113.906 137.625 113.906Z" fill="#E0E0E0"/>
<path d="M129.412 97.2375C130.237 97.65 131.231 97.2 131.944 96.6C134.119 94.7813 134.944 91.7813 136.95 89.7938C138.712 88.0313 141.394 86.3063 139.294 83.7C137.775 81.825 135.206 82.1438 133.2 83.0063C128.756 84.8625 125.231 95.1375 129.412 97.2375Z" fill="white"/>
<path d="M54.2625 54.8063C76.3313 54.8063 94.2938 69.7313 94.2938 88.0875V176.625H14.2313V88.0688C14.2313 69.7313 32.1938 54.8063 54.2625 54.8063ZM54.2625 47.0438C25.8938 47.0438 7.5 66.15 7.5 89.7375V180.394C7.5 182.588 9.28125 184.388 11.4938 184.388H101.663C103.856 184.388 105.656 182.606 105.656 180.394V89.7375C105.619 66.15 82.6312 47.0438 54.2625 47.0438Z" fill="#4FC3F7"/>
<path d="M33.1501 171.562C32.0438 170.981 32.9626 169.875 33.5813 168.862L58.6501 125.194L63.5813 128.194L35.6813 170.156C34.9688 171.244 34.2563 172.144 33.1501 171.562Z" fill="#60D3DB" stroke="#60D3DB" stroke-width="0.3125" stroke-miterlimit="10"/>
<path d="M74.7937 140.494L22.7812 100.556C22.1437 100.125 21.6 99.3375 22.2562 98.55C22.7812 97.9125 23.2687 98.25 24.1875 98.7937L74.5875 133.519C75.8625 134.306 77.5125 133.969 78.3937 132.769L93.4312 112.406L93.3937 121.537L80.7187 139.425C80.0607 140.334 79.0761 140.954 77.9715 141.153C76.8669 141.352 75.728 141.116 74.7937 140.494Z" fill="#60D3DB" stroke="#60D3DB" stroke-width="0.3125" stroke-miterlimit="10"/>
</svg>
